<svg fill="none" height="24" viewBox="0 0 24 24" width="24" xmlns="http://www.w3.org/2000/svg"><g fill="#000"><path d="m16.5749 7.25003c.0618.3447-.0181.68083-.3382.71106l-.5313.09589-.2208 8.31702c-.4678.2502-.8935.3875-1.2449.3753-.5667-.0197-.7034-.2149-1.1104-.7958l-3.30522-5.9461-.14958 5.6357 1.0879.3043s-.018.6808-.9005.6501l-2.43946.0673c-.06681-.1545.01412-.5319.2643-.5962l.63984-.1682.19773-7.44959-.88045-.1067c-.06176-.3447.12866-.82908.62219-.84963l2.61735-.09936 3.4446 6.02658.1386-5.22104-.9152-.14623c-.0598-.41704.2288-.71122.584-.73414z"/><path clip-rule="evenodd" d="m17.2583 2.83306c-3.4666-.38744-7.05-.38744-10.51653 0-2.01206.22488-3.63639 1.80989-3.87294 3.83242-.41454 3.54432-.41454 7.12482 0 10.66912.23655 2.0225 1.86088 3.6076 3.87294 3.8324 3.46653.3875 7.04993.3875 10.51653 0 2.012-.2248 3.6363-1.8099 3.8729-3.8324.4145-3.5443.4145-7.1248 0-10.66912-.2366-2.02253-1.8609-3.60754-3.8729-3.83242zm-10.34992 1.49072c3.35582-.37507 6.82742-.37507 10.18322 0 1.3302.14866 2.3956 1.19827 2.5498 2.51595.401 3.42857.401 6.89207 0 10.32067-.1542 1.3176-1.2196 2.3673-2.5498 2.5159-3.3558.3751-6.8274.3751-10.18322 0-1.33011-.1486-2.3956-1.1983-2.54971-2.5159-.401-3.4286-.401-6.8921 0-10.32067.15411-1.31768 1.2196-2.36729 2.54971-2.51595z" fill-rule="evenodd"/></g></svg>